<svg xmlns="http://www.w3.org/2000/svg" xml:space="preserve" viewBox="0 0 211.667 238.125">
  <path fill="#323232" d="M105.833 37.042c-52.605 0-95.25 42.645-95.25 95.25v74.181c0 18.325 21.705 27.992 35.327 15.734l6.867-6.181a21.166 21.166 0 0 1 23.626-3.2l19.965 9.983a21.167 21.167 0 0 0 18.931 0l19.964-9.982a21.166 21.166 0 0 1 23.627 3.199l6.867 6.18c13.621 12.26 35.326 2.592 35.326-15.733v-74.181c0-52.605-42.644-95.25-95.25-95.25z" opacity=".1" style="stroke-width:10.5833"/>
  <path stroke="#323232" stroke-width="21.167" d="M105.833 37.042c-52.605 0-95.25 42.645-95.25 95.25v74.181c0 18.325 21.705 27.992 35.327 15.734l6.867-6.181a21.166 21.166 0 0 1 23.626-3.2l19.965 9.983a21.167 21.167 0 0 0 18.931 0l19.964-9.982a21.166 21.166 0 0 1 23.627 3.199l6.867 6.18c13.621 12.26 35.326 2.592 35.326-15.733v-74.181c0-52.605-42.644-95.25-95.25-95.25z" style="fill:none"/>
  <path stroke="#323232" stroke-linecap="round" stroke-width="21.167" d="M63.5 153.458c9.654 12.853 25.024 21.167 42.338 21.167 17.312 0 32.682-8.314 42.336-21.167m-74.091-42.214v-.119m63.5.119v-.119" style="fill:none"/>
  <path fill="#1c274c" stroke-width="7.38372" d="M172.287 99.68c0 14.273-11.57 25.843-25.843 25.843S120.6 113.953 120.6 99.68s11.57-25.843 25.843-25.843 25.843 11.57 25.843 25.843z"/>
  <path fill="#1c274c" stroke-width="7.62586" fill-rule="evenodd" d="M21.167 51.686a5.907 5.538 0 0 1 5.907-5.538h157.52a5.907 5.538 0 0 1 0 11.076H27.073a5.907 5.538 0 0 1-5.907-5.538Z" clip-rule="evenodd" />
  <path fill="#1c274c" stroke-width="7.62586" d="m44.303 46.148 3.357-12.59C51.958 17.44 54.106 9.382 60.516 4.69 66.926 0 75.786 0 93.506 0h24.655c17.72 0 26.58 0 32.99 4.69 6.409 4.693 8.558 12.75 12.856 28.867l3.357 12.59z" opacity=".5"/>
  <path fill="#1c274c" stroke-width="7.38372" d="M91.066 99.68c0 14.273-11.57 25.843-25.843 25.843S39.38 113.953 39.38 99.68s11.57-25.843 25.843-25.843 25.843 11.57 25.843 25.843z"/>
  <path fill="#1c274c" d="M90.208 106.3c.558-2.113.856-4.332.856-6.62 0-2.014-.231-3.975-.667-5.857l3.054-1.527a27.687 27.687 0 0 1 24.766 0l3.048 1.525a25.925 25.925 0 0 0-.666 5.86c0 2.287.296 4.504.855 6.616l-8.19-4.095a16.615 16.615 0 0 0-14.86 0z" opacity=".5" style="stroke-width:7.38372"/>
</svg>
